<svg width="21" height="24" viewBox="0 0 21 24" fill="none" xmlns="http://www.w3.org/2000/svg">
<path d="M12.6721 18.208H7.68008V24H7.82013e-05V-1.90735e-06H12.0961C17.6001 -1.90735e-06 20.3521 2.95467 20.3521 8.864C20.3521 10.1653 20.2241 11.3813 19.9681 12.512C19.7121 13.6427 19.2747 14.6347 18.6561 15.488C18.0587 16.32 17.2694 16.9813 16.2881 17.472C15.3281 17.9627 14.1227 18.208 12.6721 18.208ZM9.44008 6.144H7.68008V12.064H9.44008C10.3787 12.064 11.0507 11.968 11.4561 11.776C11.8827 11.584 12.0961 11.136 12.0961 10.432V7.744C12.0961 7.06133 11.8827 6.624 11.4561 6.432C11.0507 6.24 10.3787 6.144 9.44008 6.144Z" fill="black"/>
</svg>
